<?xml version="1.0" encoding="UTF-8"?>
<svg id="Layer_1" data-name="Layer 1" xmlns="http://www.w3.org/2000/svg" viewBox="0 0 800 800">
  <defs>
    <style>
      .cls-1 {
        fill: #175ead;
      }

      .cls-2 {
        fill: #2575be;
      }
    </style>
  </defs>
  <path class="cls-2" d="M268.42,450.35c-24.47-7.16-51-5.56-78.01-8.92-37.41-4.66-73.39-11.52-110.86-21.51-2.2-3.44-6.56-5.03-11.44-8.34,11.52-15.66,25.3-30.38,38.98-44.34,5.09.21,11.93-2.02,18.03-.72,62.03,13.13,126.21,16.42,191.64,19.03,51.01,6.19,102.85,2.44,158.33-2.69-66.1-100.7-154.28-172.65-278.86-106.86,41.18-49.01,91.68-85.61,146.44-112.5,34.15-16.77,68.39-17.97,103.24-3.44,34.19,14.26,63.98,34.32,92.87,58.2,91.89,78.06,164.98,178.23,232.23,280.9l-216.96.47-29.51-52.24c-82.73,2.48-163.16,4.43-245.28-.07-4.16-.23-7.17,1.38-10.84,3.04Z"/>
  <path class="cls-1" d="M316.76,385.54c-65.43-2.6-129.61-5.89-191.64-19.03,25.79-33.13,59.21-60.36,97-80.96,55.62-30.31,123.58-22.85,166.18,23.79-26.17,25.64-53.02,47.82-71.54,76.2Z"/>
  <path class="cls-1" d="M268.42,450.35c-8.63,16.94-17.42,33.43-24.93,53.3l-214.49-.44c15.28-32.32,34.89-56.3,50.55-83.29,37.47,9.99,73.45,16.85,110.86,21.51,27.01,3.36,53.54,1.76,78.01,8.92Z"/>
</svg>