<?xml version="1.0" encoding="UTF-8"?>
<svg id="Layer_1" data-name="Layer 1" xmlns="http://www.w3.org/2000/svg" viewBox="0 0 682.19 321.88">
  <defs>
    <style>
      .cls-1 {
        fill-rule: evenodd;
      }

      .cls-1, .cls-2 {
        fill: #e6282b;
      }

      .cls-3 {
        fill: #4fb348;
      }
    </style>
  </defs>
  <path class="cls-3" d="M636.47,231.63v-103.94h16.79v38.9h9.67v-38.9h16.78v103.94h-16.78v-44.23h-9.67v44.23h-16.79ZM580.72,231.63v-103.94h18.34l13.49,61.29.2-61.29h16.24v103.94h-18.25l-13.59-64.24-.18,64.24h-16.24ZM555.9,127.69h16.79v103.94h-16.79v-103.94ZM484.83,231.63v-103.94h26.44l4.76,51.52,4.91-51.52h26.48v103.94h-16.24v-80.8l-9.58,80.8h-10.95l-9.39-80.8-.19,80.8h-16.24ZM433.67,203.27v-47.22c0-9.8,2.04-17.34,6.1-22.61,3.84-4.96,9.02-7.44,15.54-7.44s11.46,1.78,15.05,5.34c4.36,4.33,6.56,11.05,6.56,20.16v11.56h-15.95v-10.39c0-5.46-1.76-8.2-5.31-8.2-1.78,0-3.2,1.17-4.29,3.49-.61,1.91-.91,3.9-.91,6.01v51.38c0,3.12.37,5.53,1.1,7.26.73,1.49,1.97,2.23,3.74,2.23,3.59,0,5.38-2.6,5.38-7.8v-13.4h-5.93v-19.25h22.17v57.23h-14.68v-8.45c-3.12,6.76-7.5,10.15-13.15,10.15s-9.49-3.03-12.23-9.09c-2.13-5.03-3.19-12.03-3.19-20.96M377.91,231.63v-103.94h18.34l13.49,61.29.2-61.29h16.24v103.94h-18.25l-13.59-64.24-.18,64.24h-16.24ZM344.35,194.69h8.39l-3.93-50.86-4.47,50.86ZM324.1,231.63l13.5-103.94h22.25l13.7,103.94h-17.62l-1.54-18.47h-11.78l-1.73,18.47h-16.77ZM276.49,203.27v-75.58h16.79v75.84c0,3.64.24,6.29.71,7.94.43,1.73,1.81,2.6,4.12,2.6,1.58,0,2.8-.69,3.65-2.06.8-1.32,1.19-4.14,1.19-8.48v-75.84h16.79v75.58c0,9.19-1.95,16.48-5.84,21.86-3.89,5.46-9.15,8.19-15.77,8.19s-11.81-2.68-15.71-8.06c-3.96-5.38-5.93-12.7-5.93-21.99"/>
  <path class="cls-1" d="M101.96,89.84h30.32v30.32h-30.32v-30.32ZM66.39,89.84h30.32v30.32h-30.32v-30.32ZM66.39,54.72h30.32v30.32h-30.32v-30.32ZM101.96,54.72h30.32v30.32h-30.32v-30.32ZM133.1,0c73.51,0,133.1,59.59,133.1,133.1,0,10.14-1.14,20.02-3.29,29.51l-.02.09c-63.11,28.51-205.17-41.7-256.34,11.71-4.25-13.01-6.55-26.89-6.55-41.32C0,59.59,59.59,0,133.1,0"/>
  <path class="cls-1" d="M257.89,179.37c-63.6,23.61-196.14-43.85-248.47,3.09.4,1,.81,2,1.24,2.99.56,1.31,1.15,2.61,1.74,3.89,52.93-40.98,176.93,19.54,240.88.92.47-.98.92-1.96,1.36-2.95,1.16-2.6,2.25-5.25,3.25-7.94"/>
  <path class="cls-1" d="M246.5,202.76c-63.91,12.6-177-39.37-230.03-5.44,1.45,2.63,2.98,5.2,4.6,7.71,26.22-13.62,64.79-9.52,104.69-2.91,39.93,6.62,81.19,15.77,112.74,12.22,1.37-1.79,2.7-3.6,3.99-5.45,1.39-2.01,2.73-4.05,4.01-6.13"/>
  <path class="cls-1" d="M226.77,227.91c-24.03,23.67-57,38.29-93.4,38.29-42.73,0-80.76-20.14-105.11-51.45,50.63-19.24,138,14.34,198.51,13.16"/>
  <rect class="cls-3" x="10.12" y="271.73" width="462.89" height="11.18"/>
  <rect class="cls-3" x="10.12" y="289.62" width="462.89" height="11.18"/>
  <rect class="cls-3" x="10.12" y="307.5" width="462.89" height="11.18"/>
  <path class="cls-2" d="M658.75,274.51v12.77h3.42c2.04,0,3.45-.63,4.22-1.91l.44-1.67.15-3.02c0-2.19-.22-3.72-.67-4.56-.71-1.08-2.32-1.61-4.81-1.61h-2.75ZM644.69,320.99v-56.03h18.56c6.26,0,10.79,1.01,13.58,3.01,2.8,2.03,4.21,5.55,4.21,10.54,0,3.59-.47,6.29-1.38,8.12-1.22,2.26-3.58,3.88-7.08,4.86,2.53.41,4.51,1.46,5.91,3.14,1.51,1.58,2.24,3.54,2.24,5.89v15.4c0,.53.05,1.07.16,1.62,0,1.36.43,2.52,1.3,3.46h-13.9c-.46-.48-.86-1.59-1.23-3.32-.21-1.48-.31-2.87-.31-4.18-.03-1.32-.06-2.35-.06-3.07v-9.01c0-1.53-.42-2.69-1.24-3.49-.8-.75-2.16-1.12-4.1-1.12h-2.61v24.19h-14.06ZM616.61,301.07h7.01l-3.28-27.42-3.73,27.42ZM599.64,320.99l11.3-56.03h18.65l11.44,56.03h-14.73l-1.31-9.96h-9.84l-1.45,9.96h-14.07ZM569.7,320.99v-56.03h14.06v45.21h15.29v10.82h-29.35ZM527.27,305.68v-25.42c0-5.31,1.7-9.36,5.1-12.18,3.21-2.68,7.54-4.01,13.02-4.01s9.77,1.38,13.12,4.14c3.31,2.74,4.96,6.75,4.96,12.06v25.42c0,4.95-1.63,8.88-4.88,11.78-3.26,2.95-7.66,4.42-13.2,4.42s-9.9-1.45-13.15-4.34c-3.31-2.9-4.97-6.85-4.97-11.85M541.34,279.13v27.69c0,1.69.3,3,.93,3.94.6.8,1.64,1.2,3.13,1.2,1.67,0,2.84-.66,3.5-1.99.35-.98.52-2.03.52-3.15v-27.69c0-1.34-.14-2.42-.45-3.21-.62-1.26-1.8-1.89-3.57-1.89s-2.88.61-3.54,1.82c-.35.98-.52,2.07-.52,3.28M484.28,301.99h13.62v4.14c0,1.86.27,3.2.81,4.04.81,1.19,2.13,1.79,3.92,1.79,1.46,0,2.66-.46,3.57-1.35.87-.84,1.3-1.85,1.3-3.01,0-2.53-1.69-5.13-5.1-7.81l-6.05-4.13c-4.41-3.35-7.01-5.46-7.79-6.3-1.07-1.21-1.96-2.66-2.68-4.34-.55-1.65-.81-3.39-.81-5.24,0-5.26,1.55-9.19,4.66-11.81,3.05-2.6,7.48-3.9,13.27-3.9s10.31,1.23,13.19,3.69c2.92,2.49,4.37,5.95,4.37,10.38v5.07h-13.12v-3.01c0-1.69-.25-3.07-.72-4.15-.7-1.34-1.93-2.02-3.73-2.02-1.46,0-2.64.35-3.51,1.03-.86.76-1.3,1.81-1.3,3.16,0,1.78,1.82,4.03,5.44,6.74l6.22,4.42c5.56,4.55,8.71,7.4,9.39,8.55,1.54,2.54,2.32,5.77,2.32,9.69,0,3.45-1.36,6.5-4.06,9.18-3.47,3.4-8.48,5.09-15.03,5.09s-11.02-1.59-14.28-4.75c-2.61-2.51-3.92-5.55-3.92-9.11v-6.03Z"/>
</svg>