<?xml version="1.0" encoding="UTF-8"?>
<svg id="Layer_1" data-name="Layer 1" xmlns="http://www.w3.org/2000/svg" viewBox="0 0 800 800">
  <defs>
    <style>
      .cls-1 {
        fill: #e6282b;
        fill-rule: evenodd;
      }
    </style>
  </defs>
  <path class="cls-1" d="M311.6,277.2h86.07v86.07h-86.07v-86.07ZM210.63,277.2h86.07v86.07h-86.07v-86.07ZM210.63,177.48h86.07v86.07h-86.07v-86.07ZM311.6,177.48h86.07v86.07h-86.07v-86.07ZM400,22.16c208.68,0,377.85,169.16,377.85,377.85,0,28.79-3.23,56.82-9.34,83.77l-.06.26c-179.16,80.95-582.43-118.39-727.7,33.25-12.05-36.93-18.6-76.35-18.6-117.29C22.15,191.32,191.32,22.16,400,22.16"/>
  <path class="cls-1" d="M754.26,531.36c-180.53,67.04-556.79-124.48-705.36,8.77,1.13,2.84,2.31,5.67,3.51,8.49,1.59,3.72,3.26,7.4,4.95,11.05,150.26-116.33,502.27,55.46,683.82,2.62,1.32-2.77,2.61-5.57,3.86-8.39,3.3-7.39,6.38-14.9,9.22-22.53"/>
  <path class="cls-1" d="M721.92,597.74c-181.43,35.76-502.46-111.77-653.02-15.44,4.11,7.45,8.47,14.76,13.06,21.89,74.42-38.65,183.92-27.03,297.21-8.25,113.34,18.78,230.48,44.76,320.05,34.68,3.9-5.07,7.68-10.23,11.33-15.48,3.94-5.7,7.75-11.5,11.38-17.4"/>
  <path class="cls-1" d="M665.9,669.16c-68.22,67.21-161.82,108.69-265.15,108.69-121.31,0-229.26-57.19-298.39-146.05,143.72-54.62,391.75,40.72,563.54,37.36"/>
</svg>